<svg xmlns="http://www.w3.org/2000/svg" width="1600" height="980" viewBox="0 0 1600 980" role="img" aria-label="Comparison diagram showing an AWS-style NIXL plus EFA KV transfer stack next to Seam Orchestrator as an open replacement-capable policy and backend abstraction layer">
  <defs>
    <linearGradient id="bg" x1="0" y1="0" x2="0" y2="1">
      <stop offset="0%" stop-color="#172554"/>
      <stop offset="100%" stop-color="#0b1120"/>
    </linearGradient>
    <linearGradient id="accent" x1="0" y1="0" x2="1" y2="0">
      <stop offset="0%" stop-color="#7dd3fc"/>
      <stop offset="100%" stop-color="#a78bfa"/>
    </linearGradient>
    <filter id="shadow" x="-20%" y="-20%" width="140%" height="140%">
      <feDropShadow dx="0" dy="12" stdDeviation="14" flood-color="#000000" flood-opacity="0.3"/>
    </filter>
    <style>
      .title { font: 800 46px Inter, Arial, sans-serif; fill: #f8fafc; }
      .subtitle { font: 500 22px Inter, Arial, sans-serif; fill: #cbd5e1; }
      .section { font: 700 28px Inter, Arial, sans-serif; fill: #f8fafc; }
      .label { font: 600 20px Inter, Arial, sans-serif; fill: #f8fafc; }
      .body { font: 500 18px Inter, Arial, sans-serif; fill: #dbe4f0; }
      .small { font: 500 16px Inter, Arial, sans-serif; fill: #94a3b8; }
      .mono { font: 600 16px ui-monospace, SFMono-Regular, Menlo, monospace; fill: #e2e8f0; }
      .box { fill: #0f172a; fill-opacity: 0.82; stroke: #94a3b8; stroke-opacity: 0.22; stroke-width: 2; rx: 24; ry: 24; filter: url(#shadow);}
      .box2 { fill: #1e293b; fill-opacity: 0.76; stroke: #94a3b8; stroke-opacity: 0.22; stroke-width: 2; rx: 22; ry: 22; filter: url(#shadow);}
      .pill { fill: #1e293b; fill-opacity: 0.92; stroke: #94a3b8; stroke-opacity: 0.20; stroke-width: 1.5; rx: 999; ry: 999; }
      .line { stroke: url(#accent); stroke-width: 5; stroke-linecap: round; }
      .muteline { stroke: #94a3b8; stroke-opacity: 0.25; stroke-width: 3; stroke-linecap: round; }
      .good { fill: #86efac; }
      .warn { fill: #fcd34d; }
      .bad { fill: #fca5a5; }
    </style>
  </defs>

  <rect width="1600" height="980" fill="url(#bg)"/>
  <rect x="24" y="24" width="1552" height="932" rx="28" ry="28" fill="none" stroke="#7dd3fc" stroke-opacity="0.10" stroke-width="2"/>

  <text x="60" y="78" class="title">KV Transfer Stack: Public AWS/NIXL Path vs Seam Orchestrator Path</text>
  <text x="60" y="112" class="subtitle">The left side shows the public-style transport stack. The right side shows where this repo sits: above transport, with swappable backends and workload-aware control.</text>

  <!-- Left panel -->
  <text x="95" y="170" class="section">Public-style stack (conceptual)</text>
  <rect x="70" y="190" width="650" height="680" class="box"/>

  <rect x="110" y="240" width="570" height="90" class="box2"/>
  <text x="395" y="292" text-anchor="middle" class="label">Trainium Prefill / KV Producer</text>

  <line x1="395" y1="330" x2="395" y2="375" class="line"/>
  <rect x="180" y="375" width="430" height="86" class="box2"/>
  <text x="395" y="415" text-anchor="middle" class="label">NIXL KV Transfer Layer</text>
  <text x="395" y="442" text-anchor="middle" class="small">transfer descriptors • memory registration • backend abstraction</text>

  <line x1="395" y1="461" x2="395" y2="505" class="line"/>
  <rect x="215" y="505" width="360" height="78" class="box2"/>
  <text x="395" y="551" text-anchor="middle" class="label">EFA / libfabric Transport</text>

  <line x1="395" y1="583" x2="395" y2="627" class="line"/>
  <rect x="155" y="627" width="480" height="82" class="box2"/>
  <text x="395" y="670" text-anchor="middle" class="label">Host-side Receive / Decode-side Handoff</text>
  <text x="395" y="695" text-anchor="middle" class="small">system-specific implementation details live here</text>

  <line x1="395" y1="709" x2="395" y2="753" class="line"/>
  <rect x="110" y="753" width="570" height="88" class="box2"/>
  <text x="395" y="805" text-anchor="middle" class="label">Decode System / Consumer</text>

  <rect x="98" y="205" width="210" height="28" class="pill"/>
  <text x="203" y="224" text-anchor="middle" class="mono">publicly discussed path</text>

  <!-- Right panel -->
  <text x="885" y="170" class="section">Seam Orchestrator path</text>
  <rect x="860" y="190" width="670" height="680" class="box"/>

  <rect x="915" y="240" width="560" height="90" class="box2"/>
  <text x="1195" y="292" text-anchor="middle" class="label">Prefill Session / KV Producer</text>

  <line x1="1195" y1="330" x2="1195" y2="372" class="line"/>
  <rect x="925" y="372" width="540" height="170" class="box2"/>
  <text x="1195" y="410" text-anchor="middle" class="label">Seam Orchestrator</text>
  <text x="1195" y="442" text-anchor="middle" class="body">PathState • GFS • PRS • FAE • hysteresis</text>
  <text x="1195" y="471" text-anchor="middle" class="body">workload-aware admissibility • capacity-aware routing</text>
  <text x="1195" y="500" text-anchor="middle" class="body">decision records • reroute / reject / preserve headroom</text>
  <text x="1195" y="528" text-anchor="middle" class="small">this is the repo's main contribution</text>

  <line x1="1195" y1="542" x2="1195" y2="586" class="line"/>

  <rect x="905" y="586" width="180" height="95" class="box2"/>
  <text x="995" y="633" text-anchor="middle" class="label">MockBackend</text>
  <text x="995" y="658" text-anchor="middle" class="small">demo / fault injection</text>

  <rect x="1105" y="586" width="180" height="95" class="box2"/>
  <text x="1195" y="633" text-anchor="middle" class="label">NIXLBackend</text>
  <text x="1195" y="658" text-anchor="middle" class="small">compatible path</text>

  <rect x="1305" y="586" width="180" height="95" class="box2"/>
  <text x="1395" y="633" text-anchor="middle" class="label">UCXBackend</text>
  <text x="1395" y="658" text-anchor="middle" class="small">open replacement path</text>

  <line x1="995" y1="681" x2="995" y2="724" class="muteline"/>
  <line x1="1195" y1="681" x2="1195" y2="724" class="muteline"/>
  <line x1="1395" y1="681" x2="1395" y2="724" class="muteline"/>

  <rect x="935" y="724" width="520" height="118" class="box2"/>
  <text x="1195" y="770" text-anchor="middle" class="label">Decode Pool / Consumer Selection</text>
  <text x="1195" y="799" text-anchor="middle" class="body">same alive path can be admissible for batch</text>
  <text x="1195" y="826" text-anchor="middle" class="body">and inadmissible for strict / release traffic</text>

  <rect x="885" y="205" width="272" height="28" class="pill"/>
  <text x="1021" y="224" text-anchor="middle" class="mono">replacement-capable prototype path</text>

  <!-- middle callout -->
  <rect x="510" y="120" width="580" height="54" class="pill"/>
  <text x="800" y="154" text-anchor="middle" class="body">Key distinction: replacing the backend path is feasible; the higher-leverage software layer is the orchestration policy above transport.</text>

  <!-- Bottom comparison -->
  <rect x="70" y="892" width="1460" height="44" rx="18" ry="18" fill="#1e293b" fill-opacity="0.72" stroke="#94a3b8" stroke-opacity="0.16"/>
  <text x="160" y="920" class="label">Backend layer</text>
  <text x="360" y="920" class="body">moves bytes</text>
  <text x="640" y="920" class="label">Orchestrator layer</text>
  <text x="900" y="920" class="body">decides admissibility, routing, headroom preservation, and explainable policy</text>

  <!-- side notes -->
  <circle cx="760" cy="285" r="6" class="good"/>
  <text x="776" y="291" class="small">public path is transport-oriented</text>

  <circle cx="760" cy="320" r="6" class="warn"/>
  <text x="776" y="326" class="small">repo path adds control and replacement feasibility</text>
</svg>
